<svg width="70" height="70" viewBox="0 0 70 70" fill="none" xmlns="http://www.w3.org/2000/svg">
<path opacity="0.7" d="M35 0C15.6751 0 0 15.6751 0 35C0 54.3249 15.6751 70 35 70C54.3249 70 70 54.3249 70 35C70 15.6751 54.3249 0 35 0ZM56.2025 43.4599C56.2025 50.4852 50.4852 56.2025 43.4599 56.2025H26.519C19.4937 56.2025 13.7764 50.4852 13.7764 43.4599V26.519C13.7764 19.4937 19.4937 13.7764 26.519 13.7764H43.4599C50.4852 13.7764 56.2025 19.4937 56.2025 26.519V43.4599ZM41.8565 35C41.8565 38.692 38.8608 41.6878 35.1688 41.6878C31.4768 41.6878 28.481 38.692 28.481 35C28.481 31.308 31.4768 28.3122 35.1688 28.3122C38.8608 28.3122 41.8565 31.308 41.8565 35ZM43.4599 17.7848H26.519C21.6878 17.7848 17.7637 21.7089 17.7637 26.5401V43.481C17.7637 48.3122 21.6878 52.2363 26.519 52.2363H43.4599C48.2911 52.2363 52.2152 48.3122 52.2152 43.481V26.519C52.2152 21.6878 48.2911 17.7637 43.4599 17.7637V17.7848ZM35.1688 45.443C29.4093 45.443 24.7257 40.7595 24.7257 35C24.7257 29.2405 29.4093 24.557 35.1688 24.557C40.9283 24.557 45.6118 29.2405 45.6118 35C45.6118 40.7595 40.9283 45.443 35.1688 45.443ZM46.2236 26.3291C44.8523 26.3291 43.7342 25.211 43.7342 23.8397C43.7342 22.4684 44.8523 21.3502 46.2236 21.3502C47.5949 21.3502 48.7131 22.4684 48.7131 23.8397C48.7131 25.211 47.5949 26.3291 46.2236 26.3291Z" fill="#FF5176"/>
</svg>
