<svg width="393" height="216" viewBox="0 0 393 216" fill="none" xmlns="http://www.w3.org/2000/svg">
<path d="M126.152 50.1686C124.291 50.1686 122.63 49.038 122.086 47.342C119.195 38.5658 119.853 31.1895 124.033 25.4553C130.905 16.0061 144.706 14.9831 145.278 14.9562C147.454 14.8216 149.372 16.2215 149.773 18.2405C151.634 27.932 150.117 35.7391 145.192 41.4463C138.12 49.6841 126.753 50.1686 126.295 50.1686H126.152ZM141.957 23.6247C138.55 24.4593 133.768 26.2629 131.048 30.0049C128.901 32.9662 128.328 36.8698 129.33 41.6347C132.079 40.9886 135.944 39.5349 138.636 36.3583C141.27 33.2624 142.386 28.982 141.957 23.5978V23.6247Z" fill="white"/>
<path d="M105.996 95.7456C105.051 95.7456 104.106 95.4494 103.333 94.8572C95.7169 89.123 91.8802 82.662 91.9089 75.6895C91.9661 64.2482 102.789 56.145 103.247 55.7951C104.965 54.5298 107.399 54.6913 108.916 56.145C116.246 63.1714 119.624 70.4669 118.966 77.7894C118.021 88.3423 108.888 94.7226 108.487 94.9649C107.742 95.4764 106.855 95.7186 105.996 95.7186V95.7456ZM105.652 64.7328C103.333 67.2095 100.441 71.2207 100.413 75.7703C100.413 79.3508 102.245 82.9043 105.91 86.3233C107.8 84.3311 110.147 81.1006 110.491 77.0356C110.834 73.0782 109.202 68.9593 105.652 64.7059V64.7328Z" fill="white"/>
<path d="M115.73 134.404C112.094 134.404 109.517 133.785 109.317 133.731C107.456 133.274 106.167 131.712 106.139 129.909C106.053 120.729 108.916 113.837 114.671 109.449C124.148 102.234 137.662 104.98 138.235 105.115C140.354 105.572 141.785 107.43 141.528 109.449C140.382 119.221 136.517 126.301 130.075 130.447C125.179 133.624 119.796 134.378 115.73 134.378V134.404ZM114.785 126.382C117.62 126.49 121.772 126.167 125.322 123.825C128.786 121.563 131.163 117.767 132.394 112.491C128.872 112.356 123.747 112.787 119.996 115.668C117.047 117.929 115.301 121.509 114.785 126.355V126.382Z" fill="white"/>
<path d="M324.428 147.03C315.294 147.03 308.193 144.607 303.269 139.762C295.452 132.143 296.397 121.482 296.454 121.025C296.626 119.221 298.058 117.767 299.947 117.444C309.568 115.856 317.27 117.39 322.796 122.021C331.9 129.612 331.242 142.615 331.213 143.181C331.099 145.227 329.352 146.842 327.205 146.949C326.26 147.003 325.344 147.03 324.456 147.03H324.428ZM305.044 124.928C305.387 127.566 306.418 131.362 309.425 134.27C312.374 137.123 316.754 138.685 322.452 138.981C321.994 135.697 320.705 131.012 317.098 127.997C314.235 125.628 310.198 124.578 305.044 124.928Z" fill="white"/>
<path d="M273.491 99.9445C273.205 99.9445 272.919 99.9445 272.632 99.8637C263.069 98.0062 256.513 93.9142 253.163 87.6955C247.666 77.4656 253.363 65.6204 253.621 65.1358C254.537 63.2783 256.77 62.363 258.832 63.0091C268.767 66.1319 275.295 71.1661 278.273 77.9502C282.539 87.7493 277.5 97.3332 277.299 97.737C276.555 99.1099 275.095 99.9445 273.491 99.9445ZM260.092 72.0545C259.233 75.2581 258.603 80.0769 260.779 84.115C262.525 87.3186 265.875 89.6607 270.8 91.1414C271.516 88.557 272.031 84.6804 270.371 80.9114C268.739 77.2502 265.303 74.262 260.092 72.0276V72.0545Z" fill="white"/>
<path d="M223.93 46.3983C222.87 46.3983 221.811 46.0215 221.009 45.2946C213.908 38.9951 210.616 32.2649 211.274 25.3193C212.334 13.9049 223.815 6.6632 224.302 6.34015C226.106 5.20948 228.539 5.55945 229.914 7.12085C236.613 14.6856 239.333 22.1965 238.074 29.4651C236.241 39.9104 226.564 45.5638 226.163 45.8061C225.476 46.2099 224.703 46.3983 223.958 46.3983H223.93ZM225.905 15.4663C223.386 17.7546 220.15 21.5504 219.749 26.0731C219.434 29.6536 220.98 33.3148 224.33 37.003C226.392 35.1724 228.997 32.1303 229.685 28.0922C230.343 24.1617 229.083 19.9352 225.905 15.4394V15.4663Z" fill="white"/>
<path d="M268.451 29.8963C261.322 29.8963 255.796 27.0697 255.481 26.9081C253.792 26.0197 252.962 24.2161 253.42 22.4662C255.739 13.5554 260.348 7.55206 267.077 4.64461C278.157 -0.120375 290.526 5.69452 291.042 5.93681C292.989 6.85212 293.848 9.00579 293.103 10.9172C289.41 20.1241 283.798 26.0736 276.468 28.6041C273.691 29.5464 270.971 29.9233 268.451 29.9233V29.8963ZM262.725 21.0663C265.445 21.847 269.539 22.4662 273.605 21.0663C277.556 19.6934 280.849 16.5436 283.454 11.7517C280.076 10.8095 274.979 10.0288 270.599 11.9402C267.134 13.4477 264.5 16.5167 262.725 21.0932V21.0663Z" fill="white"/>
<path d="M159.995 80.1303C156.559 80.1303 153.324 79.4304 150.374 78.0305C139.494 72.8617 136.603 60.1551 136.488 59.6167C136.059 57.6245 137.29 55.6324 139.351 55.0132C149.315 51.9981 157.733 52.375 164.433 56.1977C174.053 61.6896 176.057 72.2156 176.143 72.6733C176.458 74.45 175.485 76.1999 173.738 76.9806C168.842 79.1073 164.261 80.1842 160.023 80.1842L159.995 80.1303ZM146.051 61.555C147.368 64.6239 149.916 68.8505 154.24 70.8696C157.647 72.4848 161.856 72.4848 166.752 70.9503C165.692 68.4736 163.66 65.0547 159.966 62.9548C156.359 60.9089 151.692 60.4512 146.08 61.555H146.051Z" fill="white"/>
<path d="M204.918 215.032C202.571 215.032 200.652 213.229 200.652 211.021V4.35007C200.652 2.14256 202.571 0.338867 204.918 0.338867C207.266 0.338867 209.185 2.14256 209.185 4.35007V211.048C209.185 213.256 207.266 215.059 204.918 215.059V215.032Z" fill="white"/>
<path d="M203.114 126.705C202.799 126.705 202.456 126.679 202.112 126.598C177.117 120.998 154.87 106.003 135.944 81.9899C126.582 70.1179 118.164 55.9844 112.237 42.201C112.123 41.9587 112.065 41.7972 112.008 41.7164C111.035 39.7243 111.951 37.3821 114.041 36.4399C116.16 35.4977 118.708 36.3322 119.71 38.3244C119.796 38.5128 119.882 38.7282 120.111 39.2128C125.78 52.404 133.825 65.9182 142.759 77.2519C160.453 99.6769 181.068 113.676 204.059 118.818C206.35 119.329 207.753 121.483 207.209 123.636C206.751 125.467 205.004 126.705 203.086 126.705H203.114Z" fill="white"/>
<path d="M181.784 118.143C179.436 118.143 177.518 116.339 177.518 114.131C177.518 71.0311 163.517 41.9835 163.374 41.7143C162.4 39.6952 163.316 37.3262 165.464 36.4109C167.582 35.4956 170.131 36.3571 171.104 38.3761C171.705 39.6145 186.05 69.3082 186.021 114.158C186.021 116.366 184.103 118.169 181.755 118.169L181.784 118.143Z" fill="white"/>
<path d="M139.637 107.322C138.95 107.322 138.263 107.322 137.547 107.322C124.835 107.052 105.365 104.172 84.8075 91.9498C82.8319 90.7653 82.2306 88.2886 83.4904 86.431C84.7502 84.5735 87.3843 84.0082 89.3599 85.1927C108.114 96.3648 125.808 99.03 137.347 99.3261C149.916 99.6492 158.162 97.2532 158.248 97.2263C160.481 96.5533 162.886 97.7378 163.574 99.8376C164.289 101.937 163.058 104.172 160.825 104.845C160.453 104.953 152.321 107.349 139.637 107.349V107.322Z" fill="white"/>
<path d="M210.473 142.642C208.383 142.642 206.579 141.215 206.264 139.223C205.921 137.042 207.524 134.996 209.872 134.7C210.072 134.7 229.17 131.927 248.267 121.482C259.319 115.452 268.195 108.022 274.694 99.4607C282.768 88.8 287.149 76.2549 287.779 62.1215C287.865 59.914 289.869 58.191 292.217 58.2987C294.565 58.3795 296.397 60.2639 296.283 62.4715C295.051 90.7383 279.819 113.594 252.304 128.562C231.804 139.707 211.933 142.534 211.103 142.642C210.902 142.669 210.702 142.696 210.473 142.696V142.642Z" fill="white"/>
<path d="M238.246 134.78C236.871 134.78 235.497 134.134 234.695 132.977C220.437 112.463 222.011 94.3992 225.848 82.8502C230 70.3589 237.558 62.7403 237.873 62.4173C239.477 60.802 242.168 60.7482 243.886 62.2557C245.604 63.7633 245.661 66.2939 244.058 67.9091C244.058 67.9091 237.387 74.7201 233.865 85.5423C229.227 99.8372 231.889 114.321 241.796 128.589C243.084 130.446 242.54 132.923 240.565 134.134C239.849 134.565 239.047 134.78 238.246 134.78Z" fill="white"/>
<path d="M276.783 126.005C266.419 126.005 259.003 124.201 258.631 124.093C256.369 123.528 254.995 121.347 255.596 119.194C256.197 117.067 258.516 115.775 260.807 116.34C260.95 116.367 271.086 118.817 283.626 117.686C300.033 116.206 312.745 109.637 321.392 98.1148C322.738 96.3111 325.4 95.8803 327.319 97.1456C329.237 98.4109 329.695 100.915 328.349 102.718C318.271 116.098 303.01 124.04 284.142 125.655C281.594 125.87 279.131 125.978 276.812 125.978L276.783 126.005Z" fill="white"/>
<path d="M215.855 52.3757C209.413 52.3757 204.689 51.3527 204.288 51.2451C201.998 50.7336 200.595 48.5799 201.139 46.4262C201.683 44.2726 203.973 42.9534 206.264 43.4649C206.264 43.4649 211.217 44.5418 217.573 44.3264C225.733 44.0572 232.347 41.9035 237.243 37.9462C245.203 31.5121 248.553 20.1784 247.179 4.32206C246.978 2.11455 248.725 0.176251 251.072 0.0147264C253.42 -0.173719 255.482 1.46845 255.654 3.67596C257.257 22.2782 252.933 35.8463 242.741 44.0572C234.323 50.8143 223.786 52.3757 215.855 52.3757Z" fill="white"/>
<path d="M220.923 215.543H4.26614C1.91833 215.543 0 213.739 0 211.532C0 209.324 1.91833 207.521 4.26614 207.521H220.923C223.271 207.521 225.189 209.324 225.189 211.532C225.189 213.739 223.271 215.543 220.923 215.543Z" fill="white"/>
<path d="M388.733 215.543H242.74C240.392 215.543 238.474 213.739 238.474 211.532C238.474 209.324 240.392 207.521 242.74 207.521H388.733C391.081 207.521 392.999 209.324 392.999 211.532C392.999 213.739 391.081 215.543 388.733 215.543Z" fill="white"/>
</svg>
