<svg width="70" height="70" viewBox="0 0 70 70" fill="none" xmlns="http://www.w3.org/2000/svg">
<path d="M43.4177 35.8861L31.8987 41.5823C31.4557 41.8354 29.9156 41.4979 29.9156 40.9916V29.3038C29.9156 28.7764 31.4557 28.4599 31.9198 28.7131L42.9325 34.7046C43.3966 34.9578 43.8819 35.6329 43.4177 35.8861ZM69.9789 35C69.9789 54.3249 54.3038 70 34.9789 70C15.654 70 0 54.3249 0 35C0 15.6751 15.6751 0 35 0C54.3249 0 70 15.6751 70 35H69.9789ZM58.5232 29.0295C58.5232 23.481 54.0295 18.9873 48.481 18.9873H22.8059C17.2574 18.9873 12.7637 23.481 12.7637 29.0295V40.9705C12.7637 46.519 17.2574 51.0127 22.8059 51.0127H48.481C54.0295 51.0127 58.5232 46.519 58.5232 40.9705V29.0295Z" fill="#FF0000"/>
</svg>
