<svg width="70" height="70" viewBox="0 0 70 70" fill="none" xmlns="http://www.w3.org/2000/svg">
<path d="M35 0C15.6635 0 0 15.6635 0 35C0 54.3366 15.6635 70 35 70C54.3365 70 70 54.3366 70 35C70 15.6635 54.3365 0 35 0ZM35.2322 16.9511C37.7654 16.9511 41.3329 22.9674 41.8607 32.5724H28.6037C29.1315 22.9674 32.699 16.9511 35.2322 16.9511ZM29.0048 15.4946C26.0706 19.0621 24.0862 25.2051 23.7274 32.5724H14.9035C15.8534 24.5084 21.4897 17.9011 29.0048 15.4946ZM14.9035 37.4276H23.7274C24.0862 44.7949 26.0706 50.9379 29.0048 54.5054C21.4897 52.0989 15.8534 45.4916 14.9035 37.4276ZM35.2322 53.0489C32.699 53.0489 29.1315 47.0326 28.6037 37.4276H41.8607C41.3329 47.0326 37.7654 53.0489 35.2322 53.0489ZM41.4596 54.5054C44.3938 50.9379 46.3782 44.7949 46.737 37.4276H55.5609C54.611 45.4916 48.9747 52.0989 41.4596 54.5054ZM46.737 32.5724C46.3782 25.2051 44.3938 19.0621 41.4596 15.4946C48.9747 17.9011 54.611 24.5084 55.5609 32.5724H46.737Z" fill="#FFC42B"/>
</svg>
