<svg width="70" height="70" viewBox="0 0 70 70" fill="none" xmlns="http://www.w3.org/2000/svg">
<path d="M35 0C15.6751 0 0 15.6751 0 35C0 54.3249 15.6751 70 35 70C54.3249 70 70 54.3249 70 35C70 15.6751 54.3249 0 35 0ZM48.7764 17.6793H44.6835C40.654 17.6793 39.3882 20.1899 39.3882 22.7637V28.8608H48.3966L46.962 38.2489H39.3882V60.9705H29.2194V38.2489H20.9705V28.8608H29.2194V21.7089C29.2194 13.5654 34.0717 9.07173 41.4979 9.07173C45.0633 9.07173 48.7764 9.70464 48.7764 9.70464V17.7004V17.6793Z" fill="#176EE9"/>
</svg>
