<svg width="73" height="70" viewBox="0 0 73 70" fill="none" xmlns="http://www.w3.org/2000/svg">
<path d="M36.0239 0C16.1217 0 0 15.6635 0 35C0 54.3366 16.1217 70 36.0239 70C55.9261 70 72.0477 54.3366 72.0477 35C72.0477 15.6635 55.9261 0 36.0239 0ZM37.6969 54.4421C33.8294 54.4421 30.2227 53.3655 27.1591 51.5289L17.7078 54.2943C16.0999 54.7587 14.7311 53.1122 15.5133 51.6978L19.8588 43.845C18.4682 41.1852 17.6643 38.1876 17.6643 35.0211C17.6643 24.2762 26.6377 15.579 37.6751 15.579C48.7126 15.579 57.686 24.2973 57.686 35.0211C57.686 45.7449 48.7126 54.4632 37.6751 54.4632L37.6969 54.4421Z" fill="#00CCFF"/>
</svg>
