<svg width="76" height="70" viewBox="0 0 76 70" fill="none" xmlns="http://www.w3.org/2000/svg">
<g clip-path="url(#clip0_3_305)">
<path d="M42.0947 28.4673C40.8806 28.4673 39.8873 29.4109 39.8652 30.5905C39.8652 31.7486 40.8585 32.7351 42.0505 32.7565C43.2425 32.7565 44.2579 31.7915 44.2579 30.6334C44.2579 29.4538 43.3087 28.4887 42.0726 28.4887L42.0947 28.4673Z" fill="#FF7F00"/>
<path d="M46.8405 28.0601C48.0545 28.0601 49.0478 27.1379 49.0478 25.9584C49.0478 24.7788 48.0987 23.8138 46.8846 23.7709C45.6926 23.7494 44.6772 24.7145 44.6772 25.894C44.6772 27.095 45.6264 28.0601 46.8405 28.0601Z" fill="#FF7F00"/>
<path d="M21.3896 26.2368C18.8953 26.2368 16.9307 28.2099 16.9528 30.6976C16.9528 33.0567 19.0057 35.0298 21.4338 35.0084C23.884 35.0084 25.8706 33.0353 25.8706 30.6548C25.8706 28.2099 23.8619 26.2368 21.3676 26.2583L21.3896 26.2368Z" fill="#FF7F00"/>
<path d="M35.958 -0.046875C16.0917 -0.046875 0 15.5875 0 34.8892C0 54.1908 16.0917 69.8252 35.958 69.8252C55.8243 69.8252 71.9161 54.1908 71.9161 34.8892C71.9161 15.5875 55.8243 -0.046875 35.958 -0.046875ZM60.8792 49.6228C59.9963 52.518 57.811 53.3544 55.1401 51.7888C53.33 50.738 51.9835 49.2153 50.637 47.6926C50.2397 47.2422 49.8424 46.7918 49.4671 46.3415C48.1648 44.8188 46.4651 43.9824 44.4785 43.9395C39.7326 43.8323 35.0089 43.7894 30.263 43.7894C28.9607 43.7894 27.6583 43.9609 26.356 44.1325C24.7225 44.347 23.4422 45.1834 22.3827 46.3844C21.3673 47.5425 20.3519 48.722 19.2703 49.8158C18.6081 50.4806 17.8355 51.1026 17.0409 51.6173C16.4449 52.0033 15.7385 52.2821 15.0322 52.4751C13.6415 52.8183 12.3833 52.2607 11.6328 51.0597C10.9706 49.9874 10.7278 48.8078 10.5954 47.5854C10.5071 46.7061 10.485 45.8268 10.4409 45.3335C10.5071 40.8298 11.3017 36.8193 12.3392 32.8518C13.1118 29.8493 13.9726 26.8682 15.3633 24.0802C15.8489 23.1151 16.3787 22.1715 17.0188 21.3136C19.5573 17.8608 23.376 16.5526 27.6142 17.582C29.3359 18.0109 31.0577 18.4613 32.8015 18.7401C36.2671 19.2762 39.6664 18.8902 43.0216 17.9251C44.5888 17.4748 46.1561 17.0887 47.8337 17.2603C50.9019 17.582 53.2417 19.0189 54.9855 21.4423C56.6411 23.7585 57.6344 26.3535 58.4511 29.0343C59.7755 33.2592 60.8351 37.5699 61.2545 41.9664C61.4973 44.54 61.6076 47.1135 60.8571 49.6442L60.8792 49.6228Z" fill="#FF7F00"/>
<path d="M51.6524 28.4672C50.4383 28.4672 49.4671 29.4323 49.4891 30.6119C49.4891 31.7914 50.4825 32.7565 51.6965 32.7351C52.9106 32.7351 53.8818 31.7485 53.8597 30.569C53.8597 29.3894 52.8664 28.4458 51.6524 28.4458V28.4672Z" fill="#FF7F00"/>
<path d="M46.8403 33.1429C45.6263 33.1429 44.6551 34.1295 44.6771 35.309C44.6771 36.4886 45.6704 37.4536 46.8845 37.4322C48.0985 37.4322 49.0698 36.4671 49.0477 35.2661C49.0477 34.0866 48.0323 33.1215 46.8403 33.1429Z" fill="#FF7F00"/>
</g>
<defs>
<clipPath id="clip0_3_305">
<rect width="75.3625" height="70" fill="white"/>
</clipPath>
</defs>
</svg>
