<svg width="70" height="70" viewBox="0 0 70 70" fill="none" xmlns="http://www.w3.org/2000/svg">
<path d="M35 0C15.6705 0 0 15.6705 0 35C0 54.3295 15.6705 70 35 70C54.3295 70 70 54.3295 70 35C70 15.6705 54.3295 0 35 0ZM48.7614 60.025C48.7614 60.025 48.7136 60.025 48.6659 60.025C48.5068 60.025 48.1568 59.9932 47.7591 59.9455C45.4841 59.6591 42.4932 59.4045 40.0909 59.2932C39.2955 59.2614 38.6432 59.2136 38.6273 59.2136C38.6273 59.2136 38.5955 59.1023 38.5159 58.8955C38.0068 57.4477 35.7318 51.0364 31.9295 40.2659L31.15 38.0705V48.65C31.1341 51.7841 31.1182 53.9955 31.1182 55.5545C31.1182 58.975 31.0705 59.2455 31.0068 59.2455C30.7364 59.2455 28.8432 59.3727 27.4591 59.4682C26.9977 59.5 26.6 59.5318 26.3295 59.5477C25.9795 59.5795 25.4545 59.6273 24.8818 59.6909C24.3091 59.7545 23.7045 59.8182 23.1795 59.8659C22.1455 59.9773 21.3023 60.0568 21.2864 60.0409C21.2705 60.025 21.2545 48.7455 21.2545 35V9.975H31.1341L31.1977 10.15C31.1977 10.15 31.2136 10.2136 31.2455 10.2932C31.2932 10.4523 31.4045 10.7227 31.5318 11.1045C31.6591 11.4864 31.8341 11.9477 32.025 12.4886C32.3114 13.3 32.6455 14.2545 33.0114 15.2727C33.1227 15.575 33.1705 15.7182 33.2023 15.7977C33.25 15.9409 33.2659 15.9727 33.425 16.4023V16.4341C36.6227 25.4864 37.2114 27.1568 38.0705 29.5591L38.9773 32.1364V21.0636L39.0091 9.99091H48.825V34.9841C48.8568 48.7295 48.8409 59.9932 48.825 60.025H48.7614Z" fill="#B90013"/>
</svg>
