<svg width="70" height="70" viewBox="0 0 70 70" fill="none" xmlns="http://www.w3.org/2000/svg">
<path d="M35 0C15.6751 0 0 15.6751 0 35C0 54.3249 15.6751 70 35 70C54.3249 70 70 54.3249 70 35C70 15.6751 54.3249 0 35 0ZM55.1477 30.6118C54.7679 30.654 54.3882 30.6751 54.0295 30.6751C49.8945 30.6751 46.0549 28.5865 43.7764 25.1477V44.0084C43.7764 51.7089 37.5316 57.9325 29.8523 57.9325C22.173 57.9325 15.9283 51.6878 15.9283 44.0084C15.9283 36.3291 22.173 30.0844 29.8523 30.0844C30.1477 30.0844 30.4219 30.1055 30.7173 30.1266V36.9831C30.4219 36.9409 30.1477 36.8987 29.8523 36.8987C25.9283 36.8987 22.7426 40.0844 22.7426 44.0084C22.7426 47.9325 25.9283 51.1181 29.8523 51.1181C33.7764 51.1181 37.2574 48.0169 37.2574 44.0928L37.3207 12.0886H43.8819C44.4937 17.9747 49.2405 22.5738 55.1477 23.0169V30.654V30.6118Z" fill="black"/>
</svg>
