<svg width="70" height="69" viewBox="0 0 70 69" fill="none" xmlns="http://www.w3.org/2000/svg">
<path d="M37.2795 45.5322H32.8676C31.5165 45.5322 30.4399 46.5782 30.4399 47.8909C30.4399 49.2035 31.5376 50.2495 32.8676 50.2495H37.2795C38.6305 50.2495 39.7071 49.2035 39.7071 47.8909C39.7071 46.5782 38.6305 45.5322 37.2795 45.5322Z" fill="#9747FF"/>
<path d="M35 0C15.6635 0 0 15.2183 0 34.0052C0 52.7922 15.6635 68.0105 35 68.0105C54.3366 68.0105 70 52.7922 70 34.0052C70 15.2183 54.3366 0 35 0ZM49.1013 42.6604V49.203C49.1013 51.9103 46.8426 54.1253 44.035 54.1253H26.1128C23.3263 54.1253 21.0464 51.9308 21.0464 49.203V18.8075C21.0464 16.1002 23.3052 13.8851 26.1128 13.8851H44.0561C46.8426 13.8851 49.1224 16.0797 49.1224 18.8075V42.6604H49.1013Z" fill="#9747FF"/>
</svg>
