<svg width="306" height="333" viewBox="0 0 306 333" fill="none" xmlns="http://www.w3.org/2000/svg">
<path d="M301.268 322.385H211.199V253.946H279.676C279.814 253.946 279.952 253.946 280.094 253.946C286.977 253.946 293.425 251.116 298.298 245.947C303.281 240.662 305.95 233.639 305.816 226.166C305.688 219.094 302.994 212.431 298.227 207.405C293.46 202.376 287.158 199.549 280.48 199.444C278.871 199.421 277.287 199.545 275.735 199.823C275.954 198.247 276.05 196.64 276.022 195.022C275.891 187.515 273.051 180.421 268.022 175.049C262.993 169.678 256.318 166.608 249.23 166.409C246.111 166.322 243.066 166.78 240.181 167.741C240.277 166.615 240.323 165.478 240.323 164.329C240.309 144.041 224.717 127.315 205.567 127.045C196.053 126.913 187.104 130.727 180.341 137.795C173.579 144.863 169.854 154.296 169.854 164.355C169.854 165.316 169.889 166.27 169.956 167.219C167.84 166.675 165.657 166.397 163.435 166.397H163.385C156.197 166.409 149.388 169.366 144.21 174.723C139.032 180.079 136.079 187.219 135.902 194.831C135.863 196.456 135.955 198.074 136.168 199.669C134.761 199.478 133.332 199.406 131.897 199.459C118.315 199.973 107.426 211.654 107.111 226.049C106.948 233.455 109.546 240.448 114.43 245.741C119.314 251.033 125.85 253.95 132.84 253.95H201.728V322.389H4.73174C2.11599 322.389 0 324.634 0 327.4C0 330.166 2.11954 332.411 4.73174 332.411H301.268C303.884 332.411 306 330.166 306 327.4C306 324.634 303.88 322.389 301.268 322.389V322.385ZM132.843 243.92C128.427 243.92 124.294 242.077 121.207 238.729C118.12 235.385 116.479 230.963 116.582 226.275C116.78 217.176 123.66 209.796 132.244 209.47C135.431 209.35 138.546 210.202 141.25 211.932C143.101 213.118 145.472 212.826 147.014 211.219C148.555 209.616 148.878 207.109 147.793 205.127C146.127 202.083 145.291 198.603 145.372 195.067C145.614 184.797 153.705 176.431 163.41 176.412H163.442C167.188 176.412 170.786 177.621 173.844 179.907C175.546 181.175 177.828 181.123 179.473 179.771C181.118 178.42 181.738 176.093 180.997 174.032C179.888 170.939 179.328 167.681 179.328 164.348C179.328 156.991 182.053 150.092 186.998 144.923C191.942 139.754 198.496 136.962 205.446 137.063C219.45 137.258 230.852 149.491 230.863 164.329C230.863 168.421 230.033 172.354 228.392 176.025C227.414 178.214 228.049 180.83 229.906 182.245C231.763 183.656 234.308 183.465 235.953 181.783C239.469 178.191 244.101 176.288 248.985 176.423C253.625 176.555 258.002 178.57 261.305 182.099C264.612 185.631 266.48 190.281 266.565 195.195C266.633 199.091 265.601 202.86 263.577 206.095C262.309 208.126 262.603 210.832 264.276 212.506C265.949 214.181 268.515 214.334 270.358 212.874C273.254 210.581 276.702 209.398 280.342 209.455C289.008 209.594 296.189 217.172 296.356 226.346C296.441 231.072 294.754 235.516 291.603 238.857C288.452 242.197 284.259 243.999 279.8 243.909C279.772 243.909 279.747 243.909 279.718 243.909H211.202V219.064C212.903 217.675 216.285 214.526 224.178 206.895C230.367 200.912 236.474 194.906 236.534 194.846C238.448 192.962 238.561 189.79 236.782 187.763C235.003 185.736 232.008 185.616 230.094 187.5C223.391 194.091 216.164 201.103 211.202 205.818V192.094C211.202 189.324 209.083 187.083 206.47 187.083C203.858 187.083 201.739 189.328 201.739 192.094V229.413L171.537 203.824C169.496 202.094 166.518 202.447 164.884 204.609C163.25 206.771 163.583 209.924 165.625 211.654L201.739 242.25V243.916H132.85L132.843 243.92Z" fill="#F0EBD8"/>
<path d="M249.552 85.9947C227.166 85.9947 208.951 66.705 208.951 42.9973C208.951 19.2897 227.166 0 249.552 0C271.938 0 290.153 19.2897 290.153 42.9973C290.153 66.705 271.938 85.9947 249.552 85.9947ZM249.552 8.69706C231.692 8.69706 217.163 24.083 217.163 42.9973C217.163 61.9117 231.692 77.2976 249.552 77.2976C267.412 77.2976 281.94 61.9117 281.94 42.9973C281.94 24.083 267.412 8.69706 249.552 8.69706Z" fill="#F0EBD8"/>
</svg>
