<svg width="70" height="66" viewBox="0 0 70 66" fill="none" xmlns="http://www.w3.org/2000/svg">
<g clip-path="url(#clip0_3_254)">
<path d="M45.5248 31.199C38.7818 27.1763 28.9237 26.0461 20.9977 28.3831C20.0908 28.6513 19.5979 29.5708 19.8542 30.4519C20.1302 31.3331 21.0766 31.812 21.9835 31.563C28.9237 29.5133 37.8749 30.5286 43.7503 34.0341C44.5587 34.513 45.6036 34.264 46.0965 33.4977C46.5894 32.7123 46.3331 31.6971 45.5445 31.2182L45.5248 31.199Z" fill="#00D954"/>
<path d="M19.7555 21.1996C18.6711 21.5253 18.0599 22.6171 18.3951 23.6707C18.7303 24.7243 19.8541 25.3181 20.9385 24.9925C27.6617 23.0194 39.2746 23.3834 46.3133 27.4444C47.2794 28 48.5413 27.6935 49.113 26.7548C49.6848 25.8162 49.3694 24.5902 48.4033 24.0347C40.2999 19.3606 27.4843 18.92 19.7555 21.1996Z" fill="#00D954"/>
<path d="M42.9622 37.4239C37.205 34.0142 30.0677 33.2096 21.7475 35.0677C21.018 35.221 20.5645 35.9489 20.7222 36.6577C20.8799 37.3664 21.6292 37.807 22.3587 37.6538C29.9691 35.9681 36.4164 36.6577 41.5426 39.7035C42.1932 40.0866 43.0213 39.895 43.4157 39.2629C43.81 38.6307 43.6128 37.8262 42.9622 37.4431V37.4239Z" fill="#00D954"/>
<path d="M33.3994 -0.0722656C14.9449 -0.0722656 0 14.4479 0 32.3778C0 50.3078 14.9449 64.828 33.3994 64.828C51.8538 64.828 66.7988 50.3078 66.7988 32.3778C66.7988 14.4479 51.8538 -0.0722656 33.3994 -0.0722656ZM33.3994 53.6026C21.333 53.6026 11.5537 44.1013 11.5537 32.3778C11.5537 20.6544 21.333 11.1531 33.3994 11.1531C45.4658 11.1531 55.245 20.6544 55.245 32.3778C55.245 44.1013 45.4658 53.6026 33.3994 53.6026Z" fill="#00D954"/>
</g>
<defs>
<clipPath id="clip0_3_254">
<rect width="70" height="65.0191" fill="white"/>
</clipPath>
</defs>
</svg>
